<?xml version="1.0" encoding="UTF-8" standalone="no"?>
<!-- Created with Inkscape (http://www.inkscape.org/) -->

<svg
   xmlns:dc="http://purl.org/dc/elements/1.1/"
   xmlns:cc="http://creativecommons.org/ns#"
   xmlns:rdf="http://www.w3.org/1999/02/22-rdf-syntax-ns#"
   xmlns:svg="http://www.w3.org/2000/svg"
   xmlns="http://www.w3.org/2000/svg"
   xmlns:sodipodi="http://sodipodi.sourceforge.net/DTD/sodipodi-0.dtd"
   xmlns:inkscape="http://www.inkscape.org/namespaces/inkscape"
   width="48px"
   height="48px"
   id="svg4720"
   version="1.1"
   inkscape:version="0.47 r22583"
   sodipodi:docname="base.svg">
  <defs
     id="defs4722">
    <linearGradient
       id="linearGradient5250">
      <stop
         style="stop-color:#787878;stop-opacity:1;"
         offset="0"
         id="stop5252" />
      <stop
         style="stop-color:#a3a3a3;stop-opacity:1;"
         offset="1"
         id="stop5254" />
    </linearGradient>
    <inkscape:perspective
       sodipodi:type="inkscape:persp3d"
       inkscape:vp_x="0 : 24 : 1"
       inkscape:vp_y="0 : 1000 : 0"
       inkscape:vp_z="48 : 24 : 1"
       inkscape:persp3d-origin="24 : 16 : 1"
       id="perspective4728" />
  </defs>
  <sodipodi:namedview
     id="base"
     pagecolor="#ffffff"
     bordercolor="#666666"
     borderopacity="1.0"
     inkscape:pageopacity="0.0"
     inkscape:pageshadow="2"
     inkscape:zoom="7"
     inkscape:cx="4.23458"
     inkscape:cy="13.906816"
     inkscape:current-layer="layer2"
     showgrid="true"
     inkscape:grid-bbox="true"
     inkscape:document-units="px"
     inkscape:window-width="1280"
     inkscape:window-height="964"
     inkscape:window-x="-4"
     inkscape:window-y="-4"
     inkscape:window-maximized="1" />
  <metadata
     id="metadata4725">
    <rdf:RDF>
      <cc:Work
         rdf:about="">
        <dc:format>image/svg+xml</dc:format>
        <dc:type
           rdf:resource="http://purl.org/dc/dcmitype/StillImage" />
        <dc:title />
      </cc:Work>
    </rdf:RDF>
  </metadata>
  <g
     id="layer1"
     inkscape:label="fond"
     inkscape:groupmode="layer"
     sodipodi:insensitive="true">
    <rect
       style="fill:#acacac;fill-opacity:1;fill-rule:nonzero;stroke:none"
       id="rect4730"
       width="36"
       height="36"
       x="6"
       y="6" />
  </g>
  <g
     inkscape:groupmode="layer"
     id="layer2"
     inkscape:label="normal">
    <rect
       style="fill:#000000;fill-opacity:1;fill-rule:nonzero;stroke:none"
       id="rect5286"
       width="23.571428"
       height="27.714285"
       x="-89.418716"
       y="-21.869759"
       ry="2.7142856"
       rx="2.7142856" />
    <path
       sodipodi:type="arc"
       style="fill:#2d2d2d;fill-opacity:1;fill-rule:nonzero;stroke:none"
       id="path3600"
       sodipodi:cx="0.64285713"
       sodipodi:cy="4.5"
       sodipodi:rx="19.928572"
       sodipodi:ry="19.928572"
       d="m 20.571429,4.5 a 19.928572,19.928572 0 1 1 -39.857144,0 19.928572,19.928572 0 1 1 39.857144,0 z"
       transform="matrix(0.90322579,0,0,0.90322579,23.419355,19.935484)" />
    <path
       transform="matrix(0.57706092,0,0,0.57706092,23.629032,21.403226)"
       d="m 20.571429,4.5 a 19.928572,19.928572 0 1 1 -39.857144,0 19.928572,19.928572 0 1 1 39.857144,0 z"
       sodipodi:ry="19.928572"
       sodipodi:rx="19.928572"
       sodipodi:cy="4.5"
       sodipodi:cx="0.64285713"
       id="path3602"
       style="fill:#ffffff;fill-opacity:1;fill-rule:nonzero;stroke:none"
       sodipodi:type="arc" />
    <path
       style="fill:#2d2d2d;fill-opacity:1;fill-rule:nonzero;stroke:none"
       d="m 20.227679,16.915178 c -0.664667,0.0238 -1.460446,0.397946 -2.125,1.0625 l -0.125,0.125 c -1.063287,1.063287 -1.386322,2.457428 -0.71875,3.125 l 2.75,2.78125 -2.75,2.75 c -0.667572,0.667572 -0.344537,2.061713 0.71875,3.125 l 0.125,0.125 c 1.063287,1.063287 2.457428,1.386322 3.125,0.71875 l 2.78125,-2.78125 2.75,2.78125 c 0.667572,0.667572 2.061714,0.344537 3.125,-0.71875 l 0.125,-0.125 c 1.063287,-1.063287 1.386322,-2.457428 0.71875,-3.125 l -2.78125,-2.75 2.78125,-2.78125 c 0.667572,-0.667572 0.344537,-2.061713 -0.71875,-3.125 l -0.125,-0.125 c -1.063286,-1.063287 -2.457428,-1.386322 -3.125,-0.71875 l -2.75,2.75 -2.78125,-2.75 c -0.25034,-0.25034 -0.6012,-0.358032 -1,-0.34375 z"
       id="rect3606" />
  </g>
</svg>
