<?xml version="1.0" encoding="UTF-8" standalone="no"?>
<!-- Created with Inkscape (http://www.inkscape.org/) -->

<svg
   xmlns:dc="http://purl.org/dc/elements/1.1/"
   xmlns:cc="http://creativecommons.org/ns#"
   xmlns:rdf="http://www.w3.org/1999/02/22-rdf-syntax-ns#"
   xmlns:svg="http://www.w3.org/2000/svg"
   xmlns="http://www.w3.org/2000/svg"
   xmlns:xlink="http://www.w3.org/1999/xlink"
   xmlns:sodipodi="http://sodipodi.sourceforge.net/DTD/sodipodi-0.dtd"
   xmlns:inkscape="http://www.inkscape.org/namespaces/inkscape"
   width="48"
   height="48"
   id="svg3600"
   version="1.1"
   inkscape:version="0.47 r22583"
   sodipodi:docname="add.svg"
   inkscape:export-filename="C:\Documents and Settings\wqtg2733\workspace\Time Attack\res\drawable\add.png"
   inkscape:export-xdpi="69.468269"
   inkscape:export-ydpi="69.468269"
   style="display:inline">
  <defs
     id="defs3602">
    <linearGradient
       id="linearGradient5270">
      <stop
         id="stop5272"
         offset="0"
         style="stop-color:#a3a3a3;stop-opacity:1;" />
      <stop
         id="stop5274"
         offset="1"
         style="stop-color:#787878;stop-opacity:1;" />
    </linearGradient>
    <linearGradient
       id="linearGradient4122">
      <stop
         style="stop-color:#a3a3a3;stop-opacity:1;"
         offset="0"
         id="stop4124" />
      <stop
         style="stop-color:#787878;stop-opacity:1;"
         offset="1"
         id="stop4126" />
    </linearGradient>
    <inkscape:perspective
       sodipodi:type="inkscape:persp3d"
       inkscape:vp_x="0 : 24 : 1"
       inkscape:vp_y="0 : 1000 : 0"
       inkscape:vp_z="48 : 24 : 1"
       inkscape:persp3d-origin="24 : 16 : 1"
       id="perspective3608" />
    <filter
       inkscape:collect="always"
       id="filter4499"
       x="-0.12"
       width="1.24"
       y="-0.12"
       height="1.24"
       color-interpolation-filters="sRGB">
      <feGaussianBlur
         inkscape:collect="always"
         stdDeviation="1.8"
         id="feGaussianBlur4501" />
    </filter>
    <filter
       inkscape:collect="always"
       id="filter4707"
       color-interpolation-filters="sRGB">
      <feGaussianBlur
         inkscape:collect="always"
         stdDeviation="0.36"
         id="feGaussianBlur4709" />
    </filter>
    <linearGradient
       inkscape:collect="always"
       xlink:href="#linearGradient4122"
       id="linearGradient4718"
       gradientUnits="userSpaceOnUse"
       x1="24"
       y1="6"
       x2="24"
       y2="42" />
    <mask
       maskUnits="userSpaceOnUse"
       id="mask4714">
      <path
         id="path4716"
         d="M 24,6 C 14.058874,6 6,14.058874 6,24 6,33.941126 14.058874,42 24,42 33.941126,42 42,33.941126 42,24 42,14.058874 33.941126,6 24,6 z m -2.21875,8 4.4375,0 c 0.630601,0 1.15625,0.494398 1.15625,1.125 l 0,5.5 5.5,0 c 0.630602,0 1.125,0.525649 1.125,1.15625 l 0,4.4375 c 0,0.630601 -0.494398,1.125 -1.125,1.125 l -5.5,0 0,5.5 C 27.375,33.474352 26.849351,34 26.21875,34 l -4.4375,0 c -0.630601,0 -1.125,-0.525648 -1.125,-1.15625 l 0,-5.5 -5.5,0 C 14.525648,27.34375 14,26.849351 14,26.21875 l 0,-4.4375 C 14,21.150649 14.525648,20.625 15.15625,20.625 l 5.5,0 0,-5.5 c 0,-0.630602 0.494399,-1.125 1.125,-1.125 z"
         style="fill:url(#linearGradient4718);fill-opacity:1;stroke:none;display:inline" />
    </mask>
    <linearGradient
       inkscape:collect="always"
       xlink:href="#linearGradient5270"
       id="linearGradient5276"
       gradientUnits="userSpaceOnUse"
       x1="24"
       y1="6"
       x2="24"
       y2="42" />
  </defs>
  <sodipodi:namedview
     id="base"
     pagecolor="#ffffff"
     bordercolor="#666666"
     borderopacity="1.0"
     inkscape:pageopacity="0.0"
     inkscape:pageshadow="2"
     inkscape:zoom="3.5"
     inkscape:cx="6.388683"
     inkscape:cy="-9.2864183"
     inkscape:current-layer="layer2"
     showgrid="true"
     inkscape:grid-bbox="true"
     inkscape:document-units="px"
     inkscape:window-width="1280"
     inkscape:window-height="998"
     inkscape:window-x="1276"
     inkscape:window-y="-4"
     inkscape:window-maximized="1"
     inkscape:snap-grids="false"
     inkscape:snap-to-guides="false"
     inkscape:snap-page="false"
     inkscape:snap-nodes="true"
     inkscape:snap-global="true" />
  <metadata
     id="metadata3605">
    <rdf:RDF>
      <cc:Work
         rdf:about="">
        <dc:format>image/svg+xml</dc:format>
        <dc:type
           rdf:resource="http://purl.org/dc/dcmitype/StillImage" />
        <dc:title></dc:title>
      </cc:Work>
    </rdf:RDF>
  </metadata>
  <g
     inkscape:groupmode="layer"
     id="layer2"
     inkscape:label="glow"
     style="display:inline">
    <path
       id="path4485"
       d="M 24,6 C 14.058874,6 6,14.058874 6,24 6,33.941126 14.058874,42 24,42 33.941126,42 42,33.941126 42,24 42,14.058874 33.941126,6 24,6 z m -2.21875,8 4.4375,0 c 0.630601,0 1.15625,0.494398 1.15625,1.125 l 0,5.5 5.5,0 c 0.630602,0 1.125,0.525649 1.125,1.15625 l 0,4.4375 c 0,0.630601 -0.494398,1.125 -1.125,1.125 l -5.5,0 0,5.5 C 27.375,33.474352 26.849351,34 26.21875,34 l -4.4375,0 c -0.630601,0 -1.125,-0.525648 -1.125,-1.15625 l 0,-5.5 -5.5,0 C 14.525648,27.34375 14,26.849351 14,26.21875 l 0,-4.4375 C 14,21.150649 14.525648,20.625 15.15625,20.625 l 5.5,0 0,-5.5 c 0,-0.630602 0.494399,-1.125 1.125,-1.125 z"
       style="fill:none;stroke:#ffffff;stroke-width:2;stroke-miterlimit:4;stroke-opacity:1;stroke-dasharray:none;filter:url(#filter4499)" />
  </g>
  <g
     id="layer1"
     inkscape:label="Normal"
     inkscape:groupmode="layer"
     style="display:inline">
    <path
       id="path4286"
       d="M 24,6 C 14.058874,6 6,14.058874 6,24 6,33.941126 14.058874,42 24,42 33.941126,42 42,33.941126 42,24 42,14.058874 33.941126,6 24,6 z m -2.21875,8 4.4375,0 c 0.630601,0 1.15625,0.494398 1.15625,1.125 l 0,5.5 5.5,0 c 0.630602,0 1.125,0.525649 1.125,1.15625 l 0,4.4375 c 0,0.630601 -0.494398,1.125 -1.125,1.125 l -5.5,0 0,5.5 C 27.375,33.474352 26.849351,34 26.21875,34 l -4.4375,0 c -0.630601,0 -1.125,-0.525648 -1.125,-1.15625 l 0,-5.5 -5.5,0 C 14.525648,27.34375 14,26.849351 14,26.21875 l 0,-4.4375 C 14,21.150649 14.525648,20.625 15.15625,20.625 l 5.5,0 0,-5.5 c 0,-0.630602 0.494399,-1.125 1.125,-1.125 z"
       style="fill:none;stroke:none"
       inkscape:export-filename="C:\Documents and Settings\wqtg2733\workspace\Time Attack\res\drawable\add.png"
       inkscape:export-xdpi="120"
       inkscape:export-ydpi="120" />
    <path
       style="fill:url(#linearGradient5276);fill-opacity:1;stroke:none"
       d="M 24,6 C 14.058874,6 6,14.058874 6,24 6,33.941126 14.058874,42 24,42 33.941126,42 42,33.941126 42,24 42,14.058874 33.941126,6 24,6 z m -2.21875,8 4.4375,0 c 0.630601,0 1.15625,0.494398 1.15625,1.125 l 0,5.5 5.5,0 c 0.630602,0 1.125,0.525649 1.125,1.15625 l 0,4.4375 c 0,0.630601 -0.494398,1.125 -1.125,1.125 l -5.5,0 0,5.5 C 27.375,33.474352 26.849351,34 26.21875,34 l -4.4375,0 c -0.630601,0 -1.125,-0.525648 -1.125,-1.15625 l 0,-5.5 -5.5,0 C 14.525648,27.34375 14,26.849351 14,26.21875 l 0,-4.4375 C 14,21.150649 14.525648,20.625 15.15625,20.625 l 5.5,0 0,-5.5 c 0,-0.630602 0.494399,-1.125 1.125,-1.125 z"
       id="path4138"
       inkscape:export-filename="C:\Documents and Settings\wqtg2733\workspace\Time Attack\res\drawable\add.png"
       inkscape:export-xdpi="120"
       inkscape:export-ydpi="120" />
  </g>
  <g
     inkscape:groupmode="layer"
     id="layer4"
     inkscape:label="sunken">
    <path
       id="path4542"
       d="M 24,6 C 14.058874,6 6,14.058874 6,24 6,33.941126 14.058874,42 24,42 33.941126,42 42,33.941126 42,24 42,14.058874 33.941126,6 24,6 z m -2.21875,8 4.4375,0 c 0.630601,0 1.15625,0.494398 1.15625,1.125 l 0,5.5 5.5,0 c 0.630602,0 1.125,0.525649 1.125,1.15625 l 0,4.4375 c 0,0.630601 -0.494398,1.125 -1.125,1.125 l -5.5,0 0,5.5 C 27.375,33.474352 26.849351,34 26.21875,34 l -4.4375,0 c -0.630601,0 -1.125,-0.525648 -1.125,-1.15625 l 0,-5.5 -5.5,0 C 14.525648,27.34375 14,26.849351 14,26.21875 l 0,-4.4375 C 14,21.150649 14.525648,20.625 15.15625,20.625 l 5.5,0 0,-5.5 c 0,-0.630602 0.494399,-1.125 1.125,-1.125 z"
       style="fill:none;stroke:#000000;stroke-opacity:1;display:inline;filter:url(#filter4707)"
       mask="url(#mask4714)" />
  </g>
</svg>
